<svg width="546" height="117" viewBox="0 0 546 117" fill="none" xmlns="http://www.w3.org/2000/svg">
<path d="M545.682 113.033C370.776 116.06 179.005 116.373 3.40625 116.146H0V113.033C0.192708 89.9313 0.177084 66.8252 0.515625 43.7047V42.2416C0.53125 42.2416 1.80208 41.486 1.80208 41.486L31.2969 23.8617L32.9766 22.709L32.8269 7.37315H35.9766V21.209L70.1615 0.625659L71.2135 0L72.1927 0.625659C94.4635 14.9773 116.839 29.1605 138.964 43.7047C116.25 30.6766 93.7865 15.9393 71.2135 2.70898L1.97656 43.7047C2.27865 65.3092 1.83594 92.1045 1.97656 113.709L140.477 113.033C271.826 113.215 415.047 110.78 545.661 113.033H545.682Z" fill="url(#paint0_linear_8265_66)"/>
<defs>
<linearGradient id="paint0_linear_8265_66" x1="-0.0234375" y1="-16.291" x2="537.477" y2="112.209" gradientUnits="userSpaceOnUse">
<stop stop-color="#FFFCEE" stop-opacity="0.6"/>
<stop offset="1" stop-color="white" stop-opacity="0.1"/>
</linearGradient>
</defs>
</svg>
