<svg width="56" height="56" viewBox="0 0 56 56" fill="none" xmlns="http://www.w3.org/2000/svg">
<path d="M22.207 6.2998C15.6851 6.2998 10.1771 13.273 9.94609 13.5705L9.31582 14.3799L10.3002 14.6711C10.3184 14.6767 12.0912 15.2325 12.0912 18.0262C12.0912 20.0002 12.3871 21.5659 12.5383 22.2344C12.1463 22.5921 11.8984 23.0976 11.8984 23.6604C11.8984 24.051 12.0475 24.5506 12.191 25.0357C12.2491 25.2303 12.3268 25.4966 12.3359 25.5498C12.3359 26.4976 13.1118 27.2711 14.0764 27.2984C14.3801 29.7432 15.6405 31.8891 17.4984 33.3346V35.3799L15.3697 37.2215C13.784 37.9133 11.288 39.0259 9.11895 40.3947C8.01595 41.0908 6.99887 41.8481 6.22734 42.6807C5.45582 43.5133 4.89844 44.4502 4.89844 45.4998V49.6998H41.2984V45.4998C41.2984 44.4502 40.7411 43.5133 39.9695 42.6807C39.198 41.8481 38.1809 41.0908 37.0779 40.3947C34.9089 39.0259 32.4129 37.9133 30.8271 37.2215L28.6984 35.3799V33.3305C30.0176 32.3026 31.0372 30.9238 31.6242 29.3328C31.1496 29.2334 30.7159 29.0134 30.3582 28.6998C29.4664 31.2751 27.2581 33.2306 24.4574 33.7297L24.2592 33.7652L24.1102 33.9006C23.5446 34.4137 22.6544 34.4151 22.0867 33.9006L21.9377 33.7652L21.7395 33.7297C18.2045 33.099 15.6045 30.1518 15.4176 26.5629L15.382 25.8998H14.1297C13.9127 25.8998 13.7359 25.7423 13.7359 25.5498C13.7359 25.3314 13.6666 25.0873 13.5336 24.6365C13.4454 24.3411 13.2984 23.8473 13.2984 23.6604C13.2984 23.3811 13.5233 23.1479 13.8166 23.1066C13.8943 23.1437 14.051 23.225 14.3457 23.3965L15.3984 24.0117V21.7367C15.3984 18.2906 19.107 16.7998 20.9984 16.7998C24.9562 16.7998 27.2566 15.4391 28.1064 14.8119C28.1246 14.821 28.147 14.8329 28.1666 14.8434C28.2471 14.366 28.3534 13.8977 28.4934 13.4406C28.3989 13.4 28.3074 13.3661 28.2213 13.3367L27.8221 13.2055L27.5158 13.4912C27.4962 13.5115 25.4273 15.3998 20.9984 15.3998C18.5631 15.3998 14.0208 17.2498 13.9984 21.7039C13.969 21.7011 13.9403 21.6998 13.9109 21.6998C13.8927 21.6998 13.8758 21.7046 13.8576 21.7053C13.7148 21.0088 13.4898 19.6593 13.4898 18.0262C13.4898 15.5951 12.4098 14.3702 11.5922 13.792C13.0839 12.1127 17.4582 7.6998 22.207 7.6998C26.0899 7.6998 27.3226 10.0157 27.3709 10.1088L27.5637 10.4998H27.9984C28.4737 10.4998 29.0683 10.5976 29.6773 10.8279C29.9272 10.4212 30.2049 10.0335 30.5031 9.65898C29.7919 9.34118 29.0641 9.16454 28.3977 9.11484C27.816 8.26854 26.05 6.2998 22.207 6.2998ZM40.5984 6.9998C34.8395 6.9998 30.0984 11.3057 30.0984 16.6768C30.0984 19.404 31.3454 22.0217 33.3182 23.8162C32.6869 25.2281 31.7705 26.0447 31.7705 26.0447C31.6545 26.1339 31.5694 26.2572 31.527 26.3973C31.4847 26.5374 31.4874 26.6872 31.5346 26.8257C31.5818 26.9642 31.6712 27.0844 31.7903 27.1694C31.9094 27.2545 32.0521 27.3001 32.1984 27.2998C33.7686 27.2998 35.5002 26.752 36.974 25.9777C38.1066 26.3639 39.3202 26.5998 40.5984 26.5998C46.3785 26.5998 51.0984 22.0478 51.0984 16.6768C51.0984 11.3057 46.3574 6.9998 40.5984 6.9998ZM40.5984 8.3998C45.6643 8.3998 49.6984 12.1316 49.6984 16.6768C49.6984 21.2219 45.6432 25.1998 40.5984 25.1998C39.3842 25.1998 38.2303 24.9787 37.1709 24.5859C37.0758 24.5509 36.9742 24.5369 36.8732 24.5449C36.7722 24.5529 36.6741 24.5828 36.5857 24.6324C35.7579 25.0962 34.7977 25.4128 33.8541 25.6318C34.2024 25.1395 34.5723 24.6751 34.8385 23.9324C34.8877 23.7949 34.8927 23.6455 34.8527 23.505C34.8127 23.3645 34.7298 23.24 34.6156 23.149C32.7228 21.642 31.4984 19.1571 31.4984 16.6768C31.4984 12.1316 35.5326 8.3998 40.5984 8.3998ZM37.0984 16.0998C36.9128 16.0998 36.7347 16.1736 36.6035 16.3048C36.4722 16.4361 36.3984 16.6142 36.3984 16.7998C36.3984 16.9855 36.4722 17.1635 36.6035 17.2948C36.7347 17.4261 36.9128 17.4998 37.0984 17.4998C37.2841 17.4998 37.4621 17.4261 37.5934 17.2948C37.7247 17.1635 37.7984 16.9855 37.7984 16.7998C37.7984 16.6142 37.7247 16.4361 37.5934 16.3048C37.4621 16.1736 37.2841 16.0998 37.0984 16.0998ZM40.5984 16.0998C40.4128 16.0998 40.2347 16.1736 40.1035 16.3048C39.9722 16.4361 39.8984 16.6142 39.8984 16.7998C39.8984 16.9855 39.9722 17.1635 40.1035 17.2948C40.2347 17.4261 40.4128 17.4998 40.5984 17.4998C40.7841 17.4998 40.9621 17.4261 41.0934 17.2948C41.2247 17.1635 41.2984 16.9855 41.2984 16.7998C41.2984 16.6142 41.2247 16.4361 41.0934 16.3048C40.9621 16.1736 40.7841 16.0998 40.5984 16.0998ZM44.0984 16.0998C43.9128 16.0998 43.7347 16.1736 43.6035 16.3048C43.4722 16.4361 43.3984 16.6142 43.3984 16.7998C43.3984 16.9855 43.4722 17.1635 43.6035 17.2948C43.7347 17.4261 43.9128 17.4998 44.0984 17.4998C44.2841 17.4998 44.4621 17.4261 44.5934 17.2948C44.7247 17.1635 44.7984 16.9855 44.7984 16.7998C44.7984 16.6142 44.7247 16.4361 44.5934 16.3048C44.4621 16.1736 44.2841 16.0998 44.0984 16.0998ZM19.2484 23.0998C18.97 23.0998 18.7029 23.2104 18.506 23.4073C18.3091 23.6043 18.1984 23.8713 18.1984 24.1498C18.1984 24.4283 18.3091 24.6954 18.506 24.8923C18.7029 25.0892 18.97 25.1998 19.2484 25.1998C19.5269 25.1998 19.794 25.0892 19.9909 24.8923C20.1878 24.6954 20.2984 24.4283 20.2984 24.1498C20.2984 23.8713 20.1878 23.6043 19.9909 23.4073C19.794 23.2104 19.5269 23.0998 19.2484 23.0998ZM26.9484 23.0998C26.67 23.0998 26.4029 23.2104 26.206 23.4073C26.0091 23.6043 25.8984 23.8713 25.8984 24.1498C25.8984 24.4283 26.0091 24.6954 26.206 24.8923C26.4029 25.0892 26.67 25.1998 26.9484 25.1998C27.2269 25.1998 27.494 25.0892 27.6909 24.8923C27.8878 24.6954 27.9984 24.4283 27.9984 24.1498C27.9984 23.8713 27.8878 23.6043 27.6909 23.4073C27.494 23.2104 27.2269 23.0998 26.9484 23.0998ZM18.8984 34.2246C19.6433 34.6096 20.4477 34.9014 21.3047 35.0723C21.8199 35.4783 22.4495 35.6998 23.0984 35.6998C23.7473 35.6998 24.3763 35.4783 24.8908 35.0723C25.7477 34.9015 26.5539 34.611 27.2984 34.226V35.9869C27.0265 36.3571 26.6497 36.8378 26.1965 37.3213C25.2652 38.3147 24.0376 39.1998 23.0984 39.1998C22.1593 39.1998 20.9317 38.3147 20.0004 37.3213C19.5471 36.8378 19.1704 36.3571 18.8984 35.9869V34.2246ZM17.8525 36.9234C18.1447 37.3159 18.5191 37.7891 18.9777 38.2783C19.5055 38.8413 20.1319 39.4231 20.8371 39.867L18.2053 41.6211L16.8367 37.8025L17.8525 36.9234ZM28.3443 36.9234L29.6281 38.0336L28.3416 41.6211L25.543 39.7549C26.1737 39.3266 26.7368 38.7928 27.2191 38.2783C27.6778 37.7891 28.0522 37.3159 28.3443 36.9234ZM15.6459 38.6297L17.4916 43.7785L21.7066 40.9689L22.218 42.2486L21.7518 48.2998H6.29844V45.4998C6.29844 44.966 6.61605 44.3223 7.25547 43.6322C7.89488 42.9422 8.82468 42.2355 9.86543 41.5787C11.7975 40.3595 14.0698 39.3217 15.6459 38.6297ZM30.8531 38.7637C32.4125 39.4542 34.5173 40.4339 36.3314 41.5787C37.3722 42.2355 38.302 42.9422 38.9414 43.6322C39.5808 44.3222 39.8984 44.966 39.8984 45.4998V48.2998H24.4451L23.9789 42.2486L24.5641 40.7844L29.0553 43.7785L30.8531 38.7637ZM8.39844 45.4998C8.21279 45.4998 8.03474 45.5736 7.90346 45.7048C7.77219 45.8361 7.69844 46.0142 7.69844 46.1998C7.69844 46.3855 7.77219 46.5635 7.90346 46.6948C8.03474 46.8261 8.21279 46.8998 8.39844 46.8998C8.58409 46.8998 8.76214 46.8261 8.89341 46.6948C9.02469 46.5635 9.09844 46.3855 9.09844 46.1998C9.09844 46.0142 9.02469 45.8361 8.89341 45.7048C8.76214 45.5736 8.58409 45.4998 8.39844 45.4998ZM11.1984 45.4998C11.0128 45.4998 10.8347 45.5736 10.7035 45.7048C10.5722 45.8361 10.4984 46.0142 10.4984 46.1998C10.4984 46.3855 10.5722 46.5635 10.7035 46.6948C10.8347 46.8261 11.0128 46.8998 11.1984 46.8998C11.3841 46.8998 11.5621 46.8261 11.6934 46.6948C11.8247 46.5635 11.8984 46.3855 11.8984 46.1998C11.8984 46.0142 11.8247 45.8361 11.6934 45.7048C11.5621 45.5736 11.3841 45.4998 11.1984 45.4998ZM13.9984 45.4998C13.8128 45.4998 13.6347 45.5736 13.5035 45.7048C13.3722 45.8361 13.2984 46.0142 13.2984 46.1998C13.2984 46.3855 13.3722 46.5635 13.5035 46.6948C13.6347 46.8261 13.8128 46.8998 13.9984 46.8998C14.1841 46.8998 14.3621 46.8261 14.4934 46.6948C14.6247 46.5635 14.6984 46.3855 14.6984 46.1998C14.6984 46.0142 14.6247 45.8361 14.4934 45.7048C14.3621 45.5736 14.1841 45.4998 13.9984 45.4998ZM16.7984 45.4998C16.6128 45.4998 16.4347 45.5736 16.3035 45.7048C16.1722 45.8361 16.0984 46.0142 16.0984 46.1998C16.0984 46.3855 16.1722 46.5635 16.3035 46.6948C16.4347 46.8261 16.6128 46.8998 16.7984 46.8998C16.9841 46.8998 17.1621 46.8261 17.2934 46.6948C17.4247 46.5635 17.4984 46.3855 17.4984 46.1998C17.4984 46.0142 17.4247 45.8361 17.2934 45.7048C17.1621 45.5736 16.9841 45.4998 16.7984 45.4998ZM19.5984 45.4998C19.4128 45.4998 19.2347 45.5736 19.1035 45.7048C18.9722 45.8361 18.8984 46.0142 18.8984 46.1998C18.8984 46.3855 18.9722 46.5635 19.1035 46.6948C19.2347 46.8261 19.4128 46.8998 19.5984 46.8998C19.7841 46.8998 19.9621 46.8261 20.0934 46.6948C20.2247 46.5635 20.2984 46.3855 20.2984 46.1998C20.2984 46.0142 20.2247 45.8361 20.0934 45.7048C19.9621 45.5736 19.7841 45.4998 19.5984 45.4998ZM26.5984 45.4998C26.4128 45.4998 26.2347 45.5736 26.1035 45.7048C25.9722 45.8361 25.8984 46.0142 25.8984 46.1998C25.8984 46.3855 25.9722 46.5635 26.1035 46.6948C26.2347 46.8261 26.4128 46.8998 26.5984 46.8998C26.7841 46.8998 26.9621 46.8261 27.0934 46.6948C27.2247 46.5635 27.2984 46.3855 27.2984 46.1998C27.2984 46.0142 27.2247 45.8361 27.0934 45.7048C26.9621 45.5736 26.7841 45.4998 26.5984 45.4998ZM29.3984 45.4998C29.2128 45.4998 29.0347 45.5736 28.9035 45.7048C28.7722 45.8361 28.6984 46.0142 28.6984 46.1998C28.6984 46.3855 28.7722 46.5635 28.9035 46.6948C29.0347 46.8261 29.2128 46.8998 29.3984 46.8998C29.5841 46.8998 29.7621 46.8261 29.8934 46.6948C30.0247 46.5635 30.0984 46.3855 30.0984 46.1998C30.0984 46.0142 30.0247 45.8361 29.8934 45.7048C29.7621 45.5736 29.5841 45.4998 29.3984 45.4998ZM32.1984 45.4998C32.0128 45.4998 31.8347 45.5736 31.7035 45.7048C31.5722 45.8361 31.4984 46.0142 31.4984 46.1998C31.4984 46.3855 31.5722 46.5635 31.7035 46.6948C31.8347 46.8261 32.0128 46.8998 32.1984 46.8998C32.3841 46.8998 32.5621 46.8261 32.6934 46.6948C32.8247 46.5635 32.8984 46.3855 32.8984 46.1998C32.8984 46.0142 32.8247 45.8361 32.6934 45.7048C32.5621 45.5736 32.3841 45.4998 32.1984 45.4998ZM34.9984 45.4998C34.8128 45.4998 34.6347 45.5736 34.5035 45.7048C34.3722 45.8361 34.2984 46.0142 34.2984 46.1998C34.2984 46.3855 34.3722 46.5635 34.5035 46.6948C34.6347 46.8261 34.8128 46.8998 34.9984 46.8998C35.1841 46.8998 35.3621 46.8261 35.4934 46.6948C35.6247 46.5635 35.6984 46.3855 35.6984 46.1998C35.6984 46.0142 35.6247 45.8361 35.4934 45.7048C35.3621 45.5736 35.1841 45.4998 34.9984 45.4998ZM37.7984 45.4998C37.6128 45.4998 37.4347 45.5736 37.3035 45.7048C37.1722 45.8361 37.0984 46.0142 37.0984 46.1998C37.0984 46.3855 37.1722 46.5635 37.3035 46.6948C37.4347 46.8261 37.6128 46.8998 37.7984 46.8998C37.9841 46.8998 38.1621 46.8261 38.2934 46.6948C38.4247 46.5635 38.4984 46.3855 38.4984 46.1998C38.4984 46.0142 38.4247 45.8361 38.2934 45.7048C38.1621 45.5736 37.9841 45.4998 37.7984 45.4998Z" fill="#FFFCEE"/>
</svg>
