<svg width="56" height="56" viewBox="0 0 56 56" fill="none" xmlns="http://www.w3.org/2000/svg">
<path d="M27.9969 6.19043L15.3012 13.5979V18.7193L16.3539 18.1041L16.7969 17.8471V30.7779H39.1969V17.8471L40.6926 18.7193V13.5979L27.9969 6.19043ZM27.9969 7.80918L39.2926 14.4018V16.283L38.9426 16.0779L38.9398 16.0752C38.8824 16.0287 38.8195 15.9932 38.7512 15.9658L27.9969 9.69043L17.2453 15.9658C17.1742 15.9904 17.1113 16.0287 17.0539 16.0752L16.7012 16.283V14.4018L27.9969 7.80918ZM27.9969 11.3092L37.7969 17.0295V25.8998C37.4113 25.8998 37.0969 26.2143 37.0969 26.5998C37.0969 26.9854 37.4113 27.2998 37.7969 27.2998V29.3779H32.1969V27.2998C32.5824 27.2998 32.8969 26.9854 32.8969 26.5998C32.8969 26.2143 32.5824 25.8998 32.1969 25.8998V18.1998H23.7969V25.8998C23.4113 25.8998 23.0969 26.2143 23.0969 26.5998C23.0969 26.9854 23.4113 27.2998 23.7969 27.2998V29.3779H18.1969V27.2998C18.5824 27.2998 18.8969 26.9854 18.8969 26.5998C18.8969 26.2143 18.5824 25.8998 18.1969 25.8998V17.0295L27.9969 11.3092ZM9.09688 19.5998C7.55742 19.5998 6.29688 20.8604 6.29688 22.3998V36.8045C6.29688 37.6084 6.57305 38.3877 7.08164 39.0139L15.5527 49.44C15.7086 49.6451 15.9629 49.7463 16.2145 49.708C16.466 49.6725 16.6793 49.5002 16.7668 49.2596C16.857 49.0189 16.8078 48.751 16.641 48.5596L8.16719 38.1279C7.86367 37.7561 7.69688 37.2885 7.69688 36.8045V22.3998C7.69688 21.6178 8.31484 20.9998 9.09688 20.9998C9.87891 20.9998 10.4969 21.6178 10.4969 22.3998V34.5896L12.802 36.8947C12.977 37.0779 13.2395 37.1518 13.4828 37.0861C13.7289 37.0232 13.9203 36.8318 13.9832 36.5857C14.0488 36.3424 13.975 36.0799 13.7918 35.9049L13.7125 35.8256C13.6988 35.8119 13.6852 35.7982 13.6715 35.7846C13.1656 35.2787 13.1656 34.4803 13.6715 33.9744C14.1773 33.4686 14.9758 33.4686 15.4816 33.9744L21.9512 40.4439C23.1324 41.6252 23.7969 43.2275 23.7969 44.8982V48.9998C23.7941 49.2514 23.9254 49.4865 24.1441 49.615C24.3629 49.7408 24.6309 49.7408 24.8496 49.615C25.0684 49.4865 25.1996 49.2514 25.1969 48.9998V44.8982C25.1969 42.8584 24.3848 40.8979 22.941 39.4541L16.4715 32.9846C15.952 32.465 15.2629 32.2025 14.5766 32.2025C13.8902 32.2025 13.2012 32.465 12.6816 32.9846L11.8969 33.7693V22.3998C11.8969 20.8604 10.6363 19.5998 9.09688 19.5998ZM25.1969 19.5998H30.7969V29.3779H25.1969V19.5998ZM46.8969 19.5998C45.3574 19.5998 44.0969 20.8604 44.0969 22.3998V33.7693L43.3121 32.9846C42.7926 32.465 42.1035 32.2025 41.4172 32.2025C40.7309 32.2025 40.0418 32.465 39.5223 32.9846L33.0527 39.4541C31.609 40.8979 30.7969 42.8584 30.7969 44.8982V48.9998C30.7941 49.2514 30.9254 49.4865 31.1441 49.615C31.3629 49.7408 31.6309 49.7408 31.8496 49.615C32.0684 49.4865 32.1996 49.2514 32.1969 48.9998V44.8982C32.1969 43.2275 32.8613 41.6252 34.0426 40.4439L40.5121 33.9744C41.018 33.4686 41.8164 33.4686 42.3223 33.9744C42.8281 34.4803 42.8281 35.2787 42.3223 35.7846L42.202 35.9049C42.0188 36.0799 41.9449 36.3424 42.0105 36.5857C42.0734 36.8318 42.2648 37.0232 42.5109 37.0861C42.7543 37.1518 43.0168 37.0779 43.1918 36.8947L43.2711 36.8154C43.2848 36.8018 43.2984 36.7881 43.3121 36.7744L45.4969 34.5896V22.3998C45.4969 21.6178 46.1148 20.9998 46.8969 20.9998C47.6789 20.9998 48.2969 21.6178 48.2969 22.3998V36.8045C48.2969 37.2885 48.1301 37.7561 47.8266 38.1279L39.3527 48.5596C39.1859 48.751 39.1367 49.0189 39.227 49.2596C39.3145 49.5002 39.5277 49.6725 39.7793 49.708C40.0309 49.7463 40.2852 49.6451 40.441 49.44L48.9121 39.0139C49.4207 38.3877 49.6969 37.6084 49.6969 36.8045V22.3998C49.6969 20.8604 48.4363 19.5998 46.8969 19.5998ZM20.9969 25.8998C20.6113 25.8998 20.2969 26.2143 20.2969 26.5998C20.2969 26.9854 20.6113 27.2998 20.9969 27.2998C21.3824 27.2998 21.6969 26.9854 21.6969 26.5998C21.6969 26.2143 21.3824 25.8998 20.9969 25.8998ZM34.9969 25.8998C34.6113 25.8998 34.2969 26.2143 34.2969 26.5998C34.2969 26.9854 34.6113 27.2998 34.9969 27.2998C35.3824 27.2998 35.6969 26.9854 35.6969 26.5998C35.6969 26.2143 35.3824 25.8998 34.9969 25.8998ZM14.6969 37.0998C14.3113 37.0998 13.9969 37.4143 13.9969 37.7998C13.9969 38.1854 14.3113 38.4998 14.6969 38.4998C15.0824 38.4998 15.3969 38.1854 15.3969 37.7998C15.3969 37.4143 15.0824 37.0998 14.6969 37.0998ZM41.2969 37.0998C40.9113 37.0998 40.5969 37.4143 40.5969 37.7998C40.5969 38.1854 40.9113 38.4998 41.2969 38.4998C41.6824 38.4998 41.9969 38.1854 41.9969 37.7998C41.9969 37.4143 41.6824 37.0998 41.2969 37.0998ZM16.0969 38.4998C15.7113 38.4998 15.3969 38.8143 15.3969 39.1998C15.3969 39.5854 15.7113 39.8998 16.0969 39.8998C16.4824 39.8998 16.7969 39.5854 16.7969 39.1998C16.7969 38.8143 16.4824 38.4998 16.0969 38.4998ZM39.8969 38.4998C39.5113 38.4998 39.1969 38.8143 39.1969 39.1998C39.1969 39.5854 39.5113 39.8998 39.8969 39.8998C40.2824 39.8998 40.5969 39.5854 40.5969 39.1998C40.5969 38.8143 40.2824 38.4998 39.8969 38.4998ZM17.4969 39.8998C17.1113 39.8998 16.7969 40.2143 16.7969 40.5998C16.7969 40.9854 17.1113 41.2998 17.4969 41.2998C17.8824 41.2998 18.1969 40.9854 18.1969 40.5998C18.1969 40.2143 17.8824 39.8998 17.4969 39.8998ZM38.4969 39.8998C38.1113 39.8998 37.7969 40.2143 37.7969 40.5998C37.7969 40.9854 38.1113 41.2998 38.4969 41.2998C38.8824 41.2998 39.1969 40.9854 39.1969 40.5998C39.1969 40.2143 38.8824 39.8998 38.4969 39.8998Z" fill="#FFFCEE"/>
</svg>
