<svg width="56" height="56" viewBox="0 0 56 56" fill="none" xmlns="http://www.w3.org/2000/svg">
<path d="M28.0016 5.59961C23.5008 5.59961 20.0445 6.9668 20.0445 6.9668L19.3062 7.26211L20.0582 8.63203C18.2316 9.19805 17.0996 9.98555 17.0996 9.98555L16.8016 10.1934V10.5598C16.8016 12.2523 18.2152 13.6523 19.4895 14.7762C20.0855 15.2984 20.668 15.7414 21.1328 16.0777C17.4961 18.4266 13.8156 22.1617 10.9309 26.2523C7.80547 30.6902 5.60156 35.5109 5.60156 39.5223C5.60156 44.2664 7.92578 47.3398 11.8551 49.0023C15.7844 50.6648 21.2723 51.0996 28.0016 51.0996C34.7309 51.0996 40.2187 50.6648 44.148 49.0023C48.0773 47.3398 50.4016 44.2664 50.4016 39.5223C50.4016 35.5109 48.1977 30.6902 45.0723 26.2523C42.1875 22.1617 38.507 18.4266 34.8703 16.0777C35.3352 15.7414 35.9176 15.2984 36.5137 14.7762C37.7879 13.6523 39.2016 12.2523 39.2016 10.5598V10.1934L38.9035 9.98555C38.9035 9.98555 37.7715 9.19805 35.9449 8.63203L36.6969 7.26211L35.9613 6.9668C35.9613 6.9668 32.516 5.59961 28.0016 5.59961ZM28.0016 6.99961C31.4715 6.99961 33.782 7.73242 34.6734 8.03867L30.6484 15.3996H25.3547L21.3297 8.04141C22.2238 7.73242 24.5426 6.99961 28.0016 6.99961ZM20.75 9.89805L23.7578 15.3996H22.6312C22.5 15.3148 21.5184 14.6969 20.4137 13.7262C19.3664 12.802 18.5379 11.6672 18.3465 10.8824C18.7484 10.6418 19.5086 10.2453 20.75 9.89805ZM35.2531 9.89805C36.4945 10.2453 37.2547 10.6418 37.6566 10.8824C37.4652 11.6672 36.6367 12.802 35.5895 13.7262C34.4848 14.6969 33.5031 15.3148 33.3719 15.3996H32.2453L35.2531 9.89805ZM23.4078 16.7996H33.3855C37.0168 18.9516 40.9379 22.818 43.9266 27.059C46.9535 31.3547 49.0016 36.0387 49.0016 39.5223C49.0016 43.8371 47.175 46.2023 43.6012 47.7117C40.0301 49.2238 34.668 49.6996 28.0016 49.6996C21.3352 49.6996 15.973 49.2238 12.402 47.7117C8.82812 46.2023 7.00156 43.8371 7.00156 39.5223C7.00156 36.0387 9.04961 31.3547 12.0766 27.059C13.6625 24.8086 15.5137 22.673 17.4441 20.8328C16.5363 22.2957 15.6969 24.0895 15.1035 26.2934C15.027 26.5367 15.0898 26.8047 15.2676 26.9906C15.448 27.1738 15.7133 27.2449 15.9621 27.1766C16.2082 27.1055 16.3969 26.9059 16.4543 26.6543C17.4223 23.0559 19.0656 20.6934 20.5148 19.1375C19.5824 21.3742 18.691 24.7375 18.691 29.6648C18.6883 29.9191 18.8195 30.1543 19.0383 30.2801C19.257 30.4086 19.525 30.4086 19.7437 30.2801C19.9625 30.1543 20.0937 29.9191 20.091 29.6648C20.091 24.7402 21.0016 21.448 21.8875 19.4027C22.5328 17.9152 23.1289 17.1277 23.4078 16.7996ZM30.4461 24.7922C25.8523 24.7922 23.0004 26.8156 22.1473 30.4469H20.0254V32.1094H21.9176C21.882 32.3828 21.8848 32.6672 21.8848 32.9625C21.8848 33.2687 21.8957 33.5641 21.9176 33.8484H20.0254V35.5109H22.1582C23.0195 39.1312 25.866 41.1328 30.4598 41.1328C31.2336 41.1328 31.9445 41.0891 32.3848 41.0234V38.5516C31.9473 38.6172 31.2691 38.65 30.4598 38.65C27.791 38.65 25.9535 37.5453 25.177 35.5109H30.9957V33.8484H24.7723C24.7367 33.5641 24.7176 33.2687 24.7176 32.9625C24.7176 32.6672 24.7395 32.3828 24.7613 32.1094H30.9957V30.4469H25.1551C25.9289 28.4016 27.7801 27.275 30.4926 27.275C31.2883 27.275 31.8926 27.3078 32.352 27.3844V24.9453C31.9336 24.8578 31.157 24.7922 30.4461 24.7922ZM10.5016 42.6996C10.116 42.6996 9.80156 43.0141 9.80156 43.3996C9.80156 43.7852 10.116 44.0996 10.5016 44.0996C10.8871 44.0996 11.2016 43.7852 11.2016 43.3996C11.2016 43.0141 10.8871 42.6996 10.5016 42.6996ZM45.5016 42.6996C45.116 42.6996 44.8016 43.0141 44.8016 43.3996C44.8016 43.7852 45.116 44.0996 45.5016 44.0996C45.8871 44.0996 46.2016 43.7852 46.2016 43.3996C46.2016 43.0141 45.8871 42.6996 45.5016 42.6996ZM12.6016 44.7996C12.216 44.7996 11.9016 45.1141 11.9016 45.4996C11.9016 45.8852 12.216 46.1996 12.6016 46.1996C12.9871 46.1996 13.3016 45.8852 13.3016 45.4996C13.3016 45.1141 12.9871 44.7996 12.6016 44.7996ZM43.4016 44.7996C43.016 44.7996 42.7016 45.1141 42.7016 45.4996C42.7016 45.8852 43.016 46.1996 43.4016 46.1996C43.7871 46.1996 44.1016 45.8852 44.1016 45.4996C44.1016 45.1141 43.7871 44.7996 43.4016 44.7996ZM15.4016 45.4996C15.016 45.4996 14.7016 45.8141 14.7016 46.1996C14.7016 46.5852 15.016 46.8996 15.4016 46.8996C15.7871 46.8996 16.1016 46.5852 16.1016 46.1996C16.1016 45.8141 15.7871 45.4996 15.4016 45.4996ZM40.6016 45.4996C40.216 45.4996 39.9016 45.8141 39.9016 46.1996C39.9016 46.5852 40.216 46.8996 40.6016 46.8996C40.9871 46.8996 41.3016 46.5852 41.3016 46.1996C41.3016 45.8141 40.9871 45.4996 40.6016 45.4996ZM18.2016 46.1996C17.816 46.1996 17.5016 46.5141 17.5016 46.8996C17.5016 47.2852 17.816 47.5996 18.2016 47.5996C18.5871 47.5996 18.9016 47.2852 18.9016 46.8996C18.9016 46.5141 18.5871 46.1996 18.2016 46.1996ZM21.0016 46.1996C20.616 46.1996 20.3016 46.5141 20.3016 46.8996C20.3016 47.2852 20.616 47.5996 21.0016 47.5996C21.3871 47.5996 21.7016 47.2852 21.7016 46.8996C21.7016 46.5141 21.3871 46.1996 21.0016 46.1996ZM23.8016 46.1996C23.416 46.1996 23.1016 46.5141 23.1016 46.8996C23.1016 47.2852 23.416 47.5996 23.8016 47.5996C24.1871 47.5996 24.5016 47.2852 24.5016 46.8996C24.5016 46.5141 24.1871 46.1996 23.8016 46.1996ZM26.6016 46.1996C26.216 46.1996 25.9016 46.5141 25.9016 46.8996C25.9016 47.2852 26.216 47.5996 26.6016 47.5996C26.9871 47.5996 27.3016 47.2852 27.3016 46.8996C27.3016 46.5141 26.9871 46.1996 26.6016 46.1996ZM29.4016 46.1996C29.016 46.1996 28.7016 46.5141 28.7016 46.8996C28.7016 47.2852 29.016 47.5996 29.4016 47.5996C29.7871 47.5996 30.1016 47.2852 30.1016 46.8996C30.1016 46.5141 29.7871 46.1996 29.4016 46.1996ZM32.2016 46.1996C31.816 46.1996 31.5016 46.5141 31.5016 46.8996C31.5016 47.2852 31.816 47.5996 32.2016 47.5996C32.5871 47.5996 32.9016 47.2852 32.9016 46.8996C32.9016 46.5141 32.5871 46.1996 32.2016 46.1996ZM35.0016 46.1996C34.616 46.1996 34.3016 46.5141 34.3016 46.8996C34.3016 47.2852 34.616 47.5996 35.0016 47.5996C35.3871 47.5996 35.7016 47.2852 35.7016 46.8996C35.7016 46.5141 35.3871 46.1996 35.0016 46.1996ZM37.8016 46.1996C37.416 46.1996 37.1016 46.5141 37.1016 46.8996C37.1016 47.2852 37.416 47.5996 37.8016 47.5996C38.1871 47.5996 38.5016 47.2852 38.5016 46.8996C38.5016 46.5141 38.1871 46.1996 37.8016 46.1996Z" fill="#FFFCEE"/>
</svg>
