<svg width="1896" height="335" viewBox="0 0 1896 335" fill="none" xmlns="http://www.w3.org/2000/svg">
<path d="M335.665 32C327.26 32 320 39.2595 320 47.6653V283.791C320 292.196 327.26 299.456 335.665 299.456C344.453 299.456 351.713 292.196 351.713 283.791V47.6653C351.713 39.2595 344.453 32 335.665 32ZM379.222 283.791C379.222 292.196 386.482 299.456 395.27 299.456H404.822C476.271 299.456 534.347 239.469 534.347 165.728C534.347 91.9866 476.271 32 404.822 32H395.27C386.482 32 379.222 39.2595 379.222 47.6653C379.222 56.4531 386.482 63.7126 395.27 63.7126H404.822C458.695 63.7126 502.634 109.562 502.634 165.728C502.634 221.894 458.695 267.743 404.822 267.743H395.27C386.482 267.743 379.222 275.003 379.222 283.791Z" fill="#FFFCEE"/>
<path d="M703.174 93.515C647.008 93.515 601.158 140.511 601.158 198.587C601.158 256.281 647.008 303.277 703.174 303.277C759.339 303.277 805.189 256.281 805.189 198.587C805.189 140.511 759.339 93.515 703.174 93.515ZM632.871 198.587C632.871 158.087 664.583 125.228 703.174 125.228C742.146 125.228 773.476 158.087 773.476 198.587C773.476 238.705 742.146 271.564 703.174 271.564C664.583 271.564 632.871 238.705 632.871 198.587Z" fill="#FFFCEE"/>
<path d="M1105.99 93.515C1076.95 93.515 1051.36 108.416 1035.69 130.959C1020.02 108.416 994.425 93.515 965.387 93.515C917.627 93.515 879.037 133.251 879.037 182.158V283.791C879.037 292.197 886.297 299.456 894.702 299.456C903.49 299.456 910.75 292.197 910.75 283.791V182.158C910.75 150.827 935.203 125.228 965.387 125.228C995.189 125.228 1019.64 150.827 1019.64 182.158V283.791C1019.64 292.197 1026.9 299.456 1035.69 299.456C1044.48 299.456 1051.36 292.197 1051.36 283.791V182.158C1051.36 150.827 1075.81 125.228 1105.99 125.228C1136.18 125.228 1160.63 150.827 1160.63 182.158V283.791C1160.63 292.197 1167.51 299.456 1176.3 299.456C1185.08 299.456 1191.96 292.197 1191.96 283.791V182.158C1191.96 133.251 1153.37 93.515 1105.99 93.515Z" fill="#FFFCEE"/>
<path d="M1367.59 93.515C1311.43 93.515 1265.58 140.511 1265.58 198.587C1265.58 256.281 1311.43 303.277 1367.59 303.277C1423.76 303.277 1469.61 256.281 1469.61 198.587C1469.61 140.511 1423.76 93.515 1367.59 93.515ZM1297.29 198.587C1297.29 158.087 1329 125.228 1367.59 125.228C1406.57 125.228 1437.9 158.087 1437.9 198.587C1437.9 238.705 1406.57 271.564 1367.59 271.564C1329 271.564 1297.29 238.705 1297.29 198.587Z" fill="#FFFCEE"/>
<path d="M1625.22 95.4179C1577.84 104.206 1541.93 146.999 1541.93 198.579V283.783C1541.93 292.189 1549.19 299.449 1557.59 299.449C1566.38 299.449 1573.64 292.189 1573.64 283.783V198.579C1573.64 162.282 1598.47 132.48 1631.33 126.366C1638.97 124.838 1643.94 118.343 1643.94 110.701C1643.94 100.767 1635.15 93.5075 1625.22 95.4179Z" fill="#FFFCEE"/>
<path d="M1895.22 283.791V198.587C1895.22 140.511 1849.37 93.515 1793.21 93.515C1737.04 93.515 1691.19 140.511 1691.19 198.587C1691.19 256.281 1737.04 303.277 1793.21 303.277C1820.72 303.277 1845.17 292.197 1863.51 274.239V283.791C1863.51 292.197 1870.77 299.456 1879.56 299.456C1888.34 299.456 1895.22 292.197 1895.22 283.791ZM1722.9 198.587C1722.9 158.087 1754.62 125.228 1793.21 125.228C1832.18 125.228 1863.51 158.087 1863.51 198.587C1863.51 238.705 1832.18 271.564 1793.21 271.564C1754.62 271.564 1722.9 238.705 1722.9 198.587Z" fill="#FFFCEE"/>
<path d="M130 0C58.3176 0 0 58.3176 0 130C0 164.821 21.0965 209.539 62.7031 262.904C81.7651 287.29 102.408 310.398 124.499 332.078C125.98 333.495 127.951 334.285 130 334.285C132.049 334.285 134.02 333.495 135.501 332.078C157.592 310.398 178.235 287.29 197.297 262.904C238.904 209.539 260 164.821 260 130C260 58.3176 201.682 0 130 0ZM130 315.125C106.508 291.444 15.9184 195.841 15.9184 130C15.9184 67.0953 67.0953 15.9184 130 15.9184C192.905 15.9184 244.082 67.0953 244.082 130C244.082 195.841 153.492 291.444 130 315.125Z" fill="#FFFCEE"/>
<path d="M130 37.1429C78.7956 37.1429 37.1426 78.796 37.1426 130C37.1426 181.204 78.7956 222.857 130 222.857C181.204 222.857 222.857 181.204 222.857 130C222.857 78.796 181.204 37.1429 130 37.1429ZM130 206.939C114.783 206.939 99.9073 202.426 87.2548 193.972C74.6023 185.518 64.7409 173.502 58.9176 159.443C53.0942 145.385 51.5706 129.915 54.5393 114.99C57.508 100.065 64.8357 86.3562 75.5958 75.5962C86.3559 64.8361 100.065 57.5084 114.99 54.5397C129.914 51.571 145.384 53.0946 159.443 58.9179C173.502 64.7412 185.518 74.6027 193.972 87.2552C202.426 99.9077 206.938 114.783 206.938 130C206.915 150.398 198.802 169.955 184.378 184.378C169.954 198.802 150.398 206.916 130 206.939Z" fill="#FFFCEE"/>
<path d="M193.721 118.805L135.354 65.7435C133.889 64.4117 131.98 63.6737 130 63.6737C128.02 63.6737 126.111 64.4117 124.646 65.7435L66.2789 118.805C65.0903 119.885 64.2565 121.3 63.8871 122.864C63.5177 124.427 63.63 126.066 64.2093 127.564C64.7886 129.062 65.8077 130.35 67.1326 131.259C68.4576 132.167 70.0264 132.653 71.6328 132.653H79.5919V172.449C79.5919 174.56 80.4305 176.584 81.9231 178.077C83.4158 179.57 85.4402 180.408 87.5511 180.408H116.735C118.846 180.408 120.87 179.57 122.363 178.077C123.855 176.584 124.694 174.56 124.694 172.449V148.571H135.306V172.449C135.306 174.56 136.145 176.584 137.637 178.077C139.13 179.57 141.155 180.408 143.265 180.408H172.449C174.56 180.408 176.584 179.57 178.077 178.077C179.57 176.584 180.408 174.56 180.408 172.449V132.653H188.367C189.974 132.653 191.543 132.167 192.868 131.259C194.193 130.35 195.212 129.062 195.791 127.564C196.37 126.066 196.482 124.427 196.113 122.864C195.744 121.3 194.91 119.885 193.721 118.805ZM164.49 124.694V164.49H151.225V140.612C151.225 138.501 150.386 136.477 148.893 134.984C147.401 133.492 145.376 132.653 143.265 132.653H116.735C114.624 132.653 112.599 133.492 111.107 134.984C109.614 136.477 108.776 138.501 108.776 140.612V164.49H95.5103V124.694C95.5107 123.238 95.1118 121.81 94.3572 120.566C93.6026 119.321 92.521 118.307 91.2303 117.634L130 82.3888L168.77 117.634C167.479 118.307 166.398 119.321 165.643 120.566C164.888 121.81 164.49 123.238 164.49 124.694Z" fill="#FFFCEE"/>
</svg>
